<mxfile host="" modified="2020-05-24T15:21:41.060Z" agent="5.0 (X11; Linux x86_64) AppleWebKit/537.36 (KHTML, like Gecko) Code/1.45.0 Chrome/78.0.3904.130 Electron/7.2.4 Safari/537.36" version="13.1.3" etag="lrwgP8mNOWNbAz78NI_h" pages="2">
            <diagram id="diagramid" name="Diagram">
              <mxGraphModel><root><mxCell id="0"/><mxCell id="1" parent="0"/><mxCell id="2" value="MyVpcF9F0CA6F" style="outlineConnect=0;fontColor=#B3B3B3;gradientColor=#945DF2;gradientDirection=north;fillColor=#5A30B5;strokeColor=#ffffff;dashed=0;verticalLabelPosition=bottom;verticalAlign=top;align=center;html=1;fontSize=12;fontStyle=0;aspect=fixed;shape=mxgraph.aws4.resourceIcon;resIcon=mxgraph.aws4.vpc;" vertex="1" parent="1"><mxGeometry x="750" y="800" width="50" height="50" as="geometry"/></mxCell><mxCell id="3" value="MyVpcPublicSubnet1SubnetF6608456" style="outlineConnect=0;fontColor=#B3B3B3;gradientColor=#F78E04;gradientDirection=north;fillColor=#D05C17;strokeColor=#ffffff;dashed=0;verticalLabelPosition=bottom;verticalAlign=top;align=center;html=1;fontSize=12;fontStyle=0;aspect=fixed;shape=mxgraph.aws4.resourceIcon;resIcon=mxgraph.aws4.ec2;" vertex="1" parent="1"><mxGeometry x="500" y="450" width="50" height="50" as="geometry"/></mxCell><mxCell id="4" value="MyVpcPublicSubnet1RouteTableC46AB2F4" style="outlineConnect=0;fontColor=#B3B3B3;gradientColor=#945DF2;gradientDirection=north;fillColor=#5A30B5;strokeColor=#ffffff;dashed=0;verticalLabelPosition=bottom;verticalAlign=top;align=center;html=1;fontSize=12;fontStyle=0;aspect=fixed;shape=mxgraph.aws4.resourceIcon;resIcon=mxgraph.aws4.route_table;" vertex="1" parent="1"><mxGeometry x="250" y="50" width="50" height="50" as="geometry"/></mxCell><mxCell id="5" value="MyVpcPublicSubnet1RouteTableAssociation2ECEE1CB" style="outlineConnect=0;fontColor=#B3B3B3;gradientColor=#945DF2;gradientDirection=north;fillColor=#5A30B5;strokeColor=#ffffff;dashed=0;verticalLabelPosition=bottom;verticalAlign=top;align=center;html=1;fontSize=12;fontStyle=0;aspect=fixed;shape=mxgraph.aws4.resourceIcon;resIcon=mxgraph.aws4.route_table;" vertex="1" parent="1"><mxGeometry y="12.5" width="50" height="50" as="geometry"/></mxCell><mxCell id="6" value="MyVpcPublicSubnet1DefaultRoute95FDF9EB" style="outlineConnect=0;fontColor=#B3B3B3;gradientColor=#945DF2;gradientDirection=north;fillColor=#5A30B5;strokeColor=#ffffff;dashed=0;verticalLabelPosition=bottom;verticalAlign=top;align=center;html=1;fontSize=12;fontStyle=0;aspect=fixed;shape=mxgraph.aws4.resourceIcon;resIcon=mxgraph.aws4.route_table;" vertex="1" parent="1"><mxGeometry y="112.5" width="50" height="50" as="geometry"/></mxCell><mxCell id="7" value="MyVpcPublicSubnet1EIP096967CB" style="outlineConnect=0;fontColor=#B3B3B3;gradientColor=#945DF2;gradientDirection=north;fillColor=#5A30B5;strokeColor=#ffffff;dashed=0;verticalLabelPosition=bottom;verticalAlign=top;align=center;html=1;fontSize=12;fontStyle=0;aspect=fixed;shape=mxgraph.aws4.resourceIcon;resIcon=mxgraph.aws4.elastic_ip_address;" vertex="1" parent="1"><mxGeometry x="500" y="350" width="50" height="50" as="geometry"/></mxCell><mxCell id="8" value="MyVpcPublicSubnet1NATGatewayAD3400C1" style="outlineConnect=0;fontColor=#B3B3B3;gradientColor=#945DF2;gradientDirection=north;fillColor=#5A30B5;strokeColor=#ffffff;dashed=0;verticalLabelPosition=bottom;verticalAlign=top;align=center;html=1;fontSize=12;fontStyle=0;aspect=fixed;shape=mxgraph.aws4.resourceIcon;resIcon=mxgraph.aws4.nat_gateway;" vertex="1" parent="1"><mxGeometry x="250" y="350" width="50" height="50" as="geometry"/></mxCell><mxCell id="9" value="MyVpcPublicSubnet2Subnet492B6BFB" style="outlineConnect=0;fontColor=#B3B3B3;gradientColor=#F78E04;gradientDirection=north;fillColor=#D05C17;strokeColor=#ffffff;dashed=0;verticalLabelPosition=bottom;verticalAlign=top;align=center;html=1;fontSize=12;fontStyle=0;aspect=fixed;shape=mxgraph.aws4.resourceIcon;resIcon=mxgraph.aws4.ec2;" vertex="1" parent="1"><mxGeometry x="500" y="600" width="50" height="50" as="geometry"/></mxCell><mxCell id="10" value="MyVpcPublicSubnet2RouteTable1DF17386" style="outlineConnect=0;fontColor=#B3B3B3;gradientColor=#945DF2;gradientDirection=north;fillColor=#5A30B5;strokeColor=#ffffff;dashed=0;verticalLabelPosition=bottom;verticalAlign=top;align=center;html=1;fontSize=12;fontStyle=0;aspect=fixed;shape=mxgraph.aws4.resourceIcon;resIcon=mxgraph.aws4.route_table;" vertex="1" parent="1"><mxGeometry x="250" y="250" width="50" height="50" as="geometry"/></mxCell><mxCell id="11" value="MyVpcPublicSubnet2RouteTableAssociation227DE78D" style="outlineConnect=0;fontColor=#B3B3B3;gradientColor=#945DF2;gradientDirection=north;fillColor=#5A30B5;strokeColor=#ffffff;dashed=0;verticalLabelPosition=bottom;verticalAlign=top;align=center;html=1;fontSize=12;fontStyle=0;aspect=fixed;shape=mxgraph.aws4.resourceIcon;resIcon=mxgraph.aws4.route_table;" vertex="1" parent="1"><mxGeometry y="500" width="50" height="50" as="geometry"/></mxCell><mxCell id="12" value="MyVpcPublicSubnet2DefaultRoute052936F6" style="outlineConnect=0;fontColor=#B3B3B3;gradientColor=#945DF2;gradientDirection=north;fillColor=#5A30B5;strokeColor=#ffffff;dashed=0;verticalLabelPosition=bottom;verticalAlign=top;align=center;html=1;fontSize=12;fontStyle=0;aspect=fixed;shape=mxgraph.aws4.resourceIcon;resIcon=mxgraph.aws4.route_table;" vertex="1" parent="1"><mxGeometry y="212.5" width="50" height="50" as="geometry"/></mxCell><mxCell id="13" value="MyVpcPublicSubnet2EIP8CCBA239" style="outlineConnect=0;fontColor=#B3B3B3;gradientColor=#945DF2;gradientDirection=north;fillColor=#5A30B5;strokeColor=#ffffff;dashed=0;verticalLabelPosition=bottom;verticalAlign=top;align=center;html=1;fontSize=12;fontStyle=0;aspect=fixed;shape=mxgraph.aws4.resourceIcon;resIcon=mxgraph.aws4.elastic_ip_address;" vertex="1" parent="1"><mxGeometry x="500" y="700" width="50" height="50" as="geometry"/></mxCell><mxCell id="14" value="MyVpcPublicSubnet2NATGateway91BFBEC9" style="outlineConnect=0;fontColor=#B3B3B3;gradientColor=#945DF2;gradientDirection=north;fillColor=#5A30B5;strokeColor=#ffffff;dashed=0;verticalLabelPosition=bottom;verticalAlign=top;align=center;html=1;fontSize=12;fontStyle=0;aspect=fixed;shape=mxgraph.aws4.resourceIcon;resIcon=mxgraph.aws4.nat_gateway;" vertex="1" parent="1"><mxGeometry x="250" y="600" width="50" height="50" as="geometry"/></mxCell><mxCell id="15" value="MyVpcPrivateSubnet1Subnet5057CF7E" style="outlineConnect=0;fontColor=#B3B3B3;gradientColor=#F78E04;gradientDirection=north;fillColor=#D05C17;strokeColor=#ffffff;dashed=0;verticalLabelPosition=bottom;verticalAlign=top;align=center;html=1;fontSize=12;fontStyle=0;aspect=fixed;shape=mxgraph.aws4.resourceIcon;resIcon=mxgraph.aws4.ec2;" vertex="1" parent="1"><mxGeometry x="250" y="950" width="50" height="50" as="geometry"/></mxCell><mxCell id="16" value="MyVpcPrivateSubnet1RouteTable8819E6E2" style="outlineConnect=0;fontColor=#B3B3B3;gradientColor=#945DF2;gradientDirection=north;fillColor=#5A30B5;strokeColor=#ffffff;dashed=0;verticalLabelPosition=bottom;verticalAlign=top;align=center;html=1;fontSize=12;fontStyle=0;aspect=fixed;shape=mxgraph.aws4.resourceIcon;resIcon=mxgraph.aws4.route_table;" vertex="1" parent="1"><mxGeometry x="250" y="450" width="50" height="50" as="geometry"/></mxCell><mxCell id="17" value="MyVpcPrivateSubnet1RouteTableAssociation56D38C7E" style="outlineConnect=0;fontColor=#B3B3B3;gradientColor=#945DF2;gradientDirection=north;fillColor=#5A30B5;strokeColor=#ffffff;dashed=0;verticalLabelPosition=bottom;verticalAlign=top;align=center;html=1;fontSize=12;fontStyle=0;aspect=fixed;shape=mxgraph.aws4.resourceIcon;resIcon=mxgraph.aws4.route_table;" vertex="1" parent="1"><mxGeometry y="800" width="50" height="50" as="geometry"/></mxCell><mxCell id="18" value="MyVpcPrivateSubnet1DefaultRouteA8CDE2FA" style="outlineConnect=0;fontColor=#B3B3B3;gradientColor=#945DF2;gradientDirection=north;fillColor=#5A30B5;strokeColor=#ffffff;dashed=0;verticalLabelPosition=bottom;verticalAlign=top;align=center;html=1;fontSize=12;fontStyle=0;aspect=fixed;shape=mxgraph.aws4.resourceIcon;resIcon=mxgraph.aws4.route_table;" vertex="1" parent="1"><mxGeometry y="400" width="50" height="50" as="geometry"/></mxCell><mxCell id="19" value="MyVpcPrivateSubnet2Subnet0040C983" style="outlineConnect=0;fontColor=#B3B3B3;gradientColor=#F78E04;gradientDirection=north;fillColor=#D05C17;strokeColor=#ffffff;dashed=0;verticalLabelPosition=bottom;verticalAlign=top;align=center;html=1;fontSize=12;fontStyle=0;aspect=fixed;shape=mxgraph.aws4.resourceIcon;resIcon=mxgraph.aws4.ec2;" vertex="1" parent="1"><mxGeometry x="250" y="1050" width="50" height="50" as="geometry"/></mxCell><mxCell id="20" value="MyVpcPrivateSubnet2RouteTableCEDCEECE" style="outlineConnect=0;fontColor=#B3B3B3;gradientColor=#945DF2;gradientDirection=north;fillColor=#5A30B5;strokeColor=#ffffff;dashed=0;verticalLabelPosition=bottom;verticalAlign=top;align=center;html=1;fontSize=12;fontStyle=0;aspect=fixed;shape=mxgraph.aws4.resourceIcon;resIcon=mxgraph.aws4.route_table;" vertex="1" parent="1"><mxGeometry x="250" y="750" width="50" height="50" as="geometry"/></mxCell><mxCell id="21" value="MyVpcPrivateSubnet2RouteTableAssociation86A610DA" style="outlineConnect=0;fontColor=#B3B3B3;gradientColor=#945DF2;gradientDirection=north;fillColor=#5A30B5;strokeColor=#ffffff;dashed=0;verticalLabelPosition=bottom;verticalAlign=top;align=center;html=1;fontSize=12;fontStyle=0;aspect=fixed;shape=mxgraph.aws4.resourceIcon;resIcon=mxgraph.aws4.route_table;" vertex="1" parent="1"><mxGeometry y="900" width="50" height="50" as="geometry"/></mxCell><mxCell id="22" value="MyVpcPrivateSubnet2DefaultRoute9CE96294" style="outlineConnect=0;fontColor=#B3B3B3;gradientColor=#945DF2;gradientDirection=north;fillColor=#5A30B5;strokeColor=#ffffff;dashed=0;verticalLabelPosition=bottom;verticalAlign=top;align=center;html=1;fontSize=12;fontStyle=0;aspect=fixed;shape=mxgraph.aws4.resourceIcon;resIcon=mxgraph.aws4.route_table;" vertex="1" parent="1"><mxGeometry y="700" width="50" height="50" as="geometry"/></mxCell><mxCell id="23" value="MyVpcIGW5C4A4F63" style="outlineConnect=0;fontColor=#B3B3B3;gradientColor=#F78E04;gradientDirection=north;fillColor=#D05C17;strokeColor=#ffffff;dashed=0;verticalLabelPosition=bottom;verticalAlign=top;align=center;html=1;fontSize=12;fontStyle=0;aspect=fixed;shape=mxgraph.aws4.resourceIcon;resIcon=mxgraph.aws4.ec2;" vertex="1" parent="1"><mxGeometry x="250" y="150" width="50" height="50" as="geometry"/></mxCell><mxCell id="24" value="MyVpcVPCGW488ACE0D" style="outlineConnect=0;fontColor=#B3B3B3;gradientColor=#F78E04;gradientDirection=north;fillColor=#D05C17;strokeColor=#ffffff;dashed=0;verticalLabelPosition=bottom;verticalAlign=top;align=center;html=1;fontSize=12;fontStyle=0;aspect=fixed;shape=mxgraph.aws4.resourceIcon;resIcon=mxgraph.aws4.ec2;" vertex="1" parent="1"><mxGeometry y="600" width="50" height="50" as="geometry"/></mxCell><mxCell id="25" value="MyCluster4C1BA579" style="outlineConnect=0;fontColor=#B3B3B3;gradientColor=#F78E04;gradientDirection=north;fillColor=#D05C17;strokeColor=#ffffff;dashed=0;verticalLabelPosition=bottom;verticalAlign=top;align=center;html=1;fontSize=12;fontStyle=0;aspect=fixed;shape=mxgraph.aws4.resourceIcon;resIcon=mxgraph.aws4.ecs;" vertex="1" parent="1"><mxGeometry x="250" y="1400" width="50" height="50" as="geometry"/></mxCell><mxCell id="26" value="MyFargateServiceLBDE830E97" style="outlineConnect=0;fontColor=#B3B3B3;gradientColor=#aaaaaa;gradientDirection=north;fillColor=#aaaaaa;strokeColor=#ffffff;dashed=0;verticalLabelPosition=bottom;verticalAlign=top;align=center;html=1;fontSize=12;fontStyle=0;aspect=fixed;shape=mxgraph.aws4.resourceIcon;resIcon=mxgraph.aws4.elasticloadbalancingv2;" vertex="1" parent="1"><mxGeometry x="250" y="850" width="50" height="50" as="geometry"/></mxCell><mxCell id="27" value="MyFargateServiceLBSecurityGroup6FBF16F1" style="outlineConnect=0;fontColor=#B3B3B3;gradientColor=#F78E04;gradientDirection=north;fillColor=#D05C17;strokeColor=#ffffff;dashed=0;verticalLabelPosition=bottom;verticalAlign=top;align=center;html=1;fontSize=12;fontStyle=0;aspect=fixed;shape=mxgraph.aws4.resourceIcon;resIcon=mxgraph.aws4.ec2;" vertex="1" parent="1"><mxGeometry x="500" y="1000" width="50" height="50" as="geometry"/></mxCell><mxCell id="28" value="MyFargateServiceLBSecurityGrouptoawsfargateserviceMyFargateServiceSecurityGroup91B2EA92802133E82A" style="outlineConnect=0;fontColor=#B3B3B3;gradientColor=#F78E04;gradientDirection=north;fillColor=#D05C17;strokeColor=#ffffff;dashed=0;verticalLabelPosition=bottom;verticalAlign=top;align=center;html=1;fontSize=12;fontStyle=0;aspect=fixed;shape=mxgraph.aws4.resourceIcon;resIcon=mxgraph.aws4.ec2;" vertex="1" parent="1"><mxGeometry y="1212.5" width="50" height="50" as="geometry"/></mxCell><mxCell id="29" value="MyFargateServiceLBPublicListener61A1042F" style="outlineConnect=0;fontColor=#B3B3B3;gradientColor=#aaaaaa;gradientDirection=north;fillColor=#aaaaaa;strokeColor=#ffffff;dashed=0;verticalLabelPosition=bottom;verticalAlign=top;align=center;html=1;fontSize=12;fontStyle=0;aspect=fixed;shape=mxgraph.aws4.resourceIcon;resIcon=mxgraph.aws4.elasticloadbalancingv2;" vertex="1" parent="1"><mxGeometry y="1025" width="50" height="50" as="geometry"/></mxCell><mxCell id="30" value="MyFargateServiceLBPublicListenerECSGroup4A3EDF05" style="outlineConnect=0;fontColor=#B3B3B3;gradientColor=#aaaaaa;gradientDirection=north;fillColor=#aaaaaa;strokeColor=#ffffff;dashed=0;verticalLabelPosition=bottom;verticalAlign=top;align=center;html=1;fontSize=12;fontStyle=0;aspect=fixed;shape=mxgraph.aws4.resourceIcon;resIcon=mxgraph.aws4.elasticloadbalancingv2;" vertex="1" parent="1"><mxGeometry x="250" y="1200" width="50" height="50" as="geometry"/></mxCell><mxCell id="31" value="MyFargateServiceTaskDefTaskRole62C7D397" style="outlineConnect=0;fontColor=#B3B3B3;gradientColor=#F54749;gradientDirection=north;fillColor=#C7131F;strokeColor=#ffffff;dashed=0;verticalLabelPosition=bottom;verticalAlign=top;align=center;html=1;fontSize=12;fontStyle=0;aspect=fixed;shape=mxgraph.aws4.resourceIcon;resIcon=mxgraph.aws4.role;" vertex="1" parent="1"><mxGeometry x="500" y="1200" width="50" height="50" as="geometry"/></mxCell><mxCell id="32" value="MyFargateServiceTaskDef5DA17B39" style="outlineConnect=0;fontColor=#B3B3B3;gradientColor=#F78E04;gradientDirection=north;fillColor=#D05C17;strokeColor=#ffffff;dashed=0;verticalLabelPosition=bottom;verticalAlign=top;align=center;html=1;fontSize=12;fontStyle=0;aspect=fixed;shape=mxgraph.aws4.resourceIcon;resIcon=mxgraph.aws4.ecs;" vertex="1" parent="1"><mxGeometry x="250" y="1550" width="50" height="50" as="geometry"/></mxCell><mxCell id="33" value="MyFargateServiceTaskDefwebLogGroup4A6C44E8" style="outlineConnect=0;fontColor=#B3B3B3;gradientColor=#F34482;gradientDirection=north;fillColor=#BC1356;strokeColor=#ffffff;dashed=0;verticalLabelPosition=bottom;verticalAlign=top;align=center;html=1;fontSize=12;fontStyle=0;aspect=fixed;shape=mxgraph.aws4.resourceIcon;resIcon=mxgraph.aws4.cloudwatch;" vertex="1" parent="1"><mxGeometry x="500" y="1300" width="50" height="50" as="geometry"/></mxCell><mxCell id="34" value="MyFargateServiceTaskDefExecutionRoleD6305504" style="outlineConnect=0;fontColor=#B3B3B3;gradientColor=#F54749;gradientDirection=north;fillColor=#C7131F;strokeColor=#ffffff;dashed=0;verticalLabelPosition=bottom;verticalAlign=top;align=center;html=1;fontSize=12;fontStyle=0;aspect=fixed;shape=mxgraph.aws4.resourceIcon;resIcon=mxgraph.aws4.role;" vertex="1" parent="1"><mxGeometry x="500" y="1600" width="50" height="50" as="geometry"/></mxCell><mxCell id="35" value="MyFargateServiceTaskDefExecutionRoleDefaultPolicyEC22B20F" style="outlineConnect=0;fontColor=#B3B3B3;gradientColor=#F54749;gradientDirection=north;fillColor=#C7131F;strokeColor=#ffffff;dashed=0;verticalLabelPosition=bottom;verticalAlign=top;align=center;html=1;fontSize=12;fontStyle=0;aspect=fixed;shape=mxgraph.aws4.resourceIcon;resIcon=mxgraph.aws4.identity_and_access_management;" vertex="1" parent="1"><mxGeometry x="250" y="1650" width="50" height="50" as="geometry"/></mxCell><mxCell id="36" value="MyFargateServiceF490C034" style="outlineConnect=0;fontColor=#B3B3B3;gradientColor=#F78E04;gradientDirection=north;fillColor=#D05C17;strokeColor=#ffffff;dashed=0;verticalLabelPosition=bottom;verticalAlign=top;align=center;html=1;fontSize=12;fontStyle=0;aspect=fixed;shape=mxgraph.aws4.resourceIcon;resIcon=mxgraph.aws4.ecs;" vertex="1" parent="1"><mxGeometry y="1312.5" width="50" height="50" as="geometry"/></mxCell><mxCell id="37" value="MyFargateServiceSecurityGroup7016792A" style="outlineConnect=0;fontColor=#B3B3B3;gradientColor=#F78E04;gradientDirection=north;fillColor=#D05C17;strokeColor=#ffffff;dashed=0;verticalLabelPosition=bottom;verticalAlign=top;align=center;html=1;fontSize=12;fontStyle=0;aspect=fixed;shape=mxgraph.aws4.resourceIcon;resIcon=mxgraph.aws4.ec2;" vertex="1" parent="1"><mxGeometry x="250" y="1300" width="50" height="50" as="geometry"/></mxCell><mxCell id="38" value="MyFargateServiceSecurityGroupfromawsfargateserviceMyFargateServiceLBSecurityGroupE416B85780A581C040" style="outlineConnect=0;fontColor=#B3B3B3;gradientColor=#F78E04;gradientDirection=north;fillColor=#D05C17;strokeColor=#ffffff;dashed=0;verticalLabelPosition=bottom;verticalAlign=top;align=center;html=1;fontSize=12;fontStyle=0;aspect=fixed;shape=mxgraph.aws4.resourceIcon;resIcon=mxgraph.aws4.ec2;" vertex="1" parent="1"><mxGeometry y="1412.5" width="50" height="50" as="geometry"/></mxCell><mxCell id="39" value="CDKMetadata" style="outlineConnect=0;fontColor=#B3B3B3;gradientColor=#aaaaaa;gradientDirection=north;fillColor=#aaaaaa;strokeColor=#ffffff;dashed=0;verticalLabelPosition=bottom;verticalAlign=top;align=center;html=1;fontSize=12;fontStyle=0;aspect=fixed;shape=mxgraph.aws4.resourceIcon;resIcon=mxgraph.aws4.cdk;" vertex="1" parent="1"><mxGeometry y="1800" width="50" height="50" as="geometry"/></mxCell><mxCell id="MyVpcF9F0CA6F|MyVpcPublicSubnet1SubnetF6608456" value="VpcId" style="edgeStyle=orthogonalEdgeStyle;rounded=1;orthogonalLoop=1;jettySize=auto;html=1;labelBackgroundColor=none;fontColor=#EA6B66;noEdgeStyle=1;orthogonal=1;" edge="1" parent="1" source="3" target="2"><mxGeometry relative="1" as="geometry"><Array as="points"><mxPoint x="562" y="475"/><mxPoint x="734" y="810.4166666666666"/></Array></mxGeometry></mxCell><mxCell id="MyVpcF9F0CA6F|MyVpcPublicSubnet1RouteTableC46AB2F4" value="VpcId" style="edgeStyle=orthogonalEdgeStyle;rounded=1;orthogonalLoop=1;jettySize=auto;html=1;labelBackgroundColor=none;fontColor=#EA6B66;noEdgeStyle=1;orthogonal=1;" edge="1" parent="1" source="4" target="2"><mxGeometry relative="1" as="geometry"><Array as="points"><mxPoint x="312" y="75"/><mxPoint x="400" y="250"/><mxPoint x="650" y="250"/><mxPoint x="738" y="802.0833333333334"/></Array></mxGeometry></mxCell><mxCell id="MyVpcPublicSubnet1RouteTableC46AB2F4|MyVpcPublicSubnet1RouteTableAssociation2ECEE1CB" value="RouteTableId" style="edgeStyle=orthogonalEdgeStyle;rounded=1;orthogonalLoop=1;jettySize=auto;html=1;labelBackgroundColor=none;fontColor=#EA6B66;noEdgeStyle=1;orthogonal=1;" edge="1" parent="1" source="5" target="4"><mxGeometry relative="1" as="geometry"><Array as="points"><mxPoint x="62" y="47.5"/><mxPoint x="238" y="65"/></Array></mxGeometry></mxCell><mxCell id="MyVpcPublicSubnet1SubnetF6608456|MyVpcPublicSubnet1RouteTableAssociation2ECEE1CB" value="SubnetId" style="edgeStyle=orthogonalEdgeStyle;rounded=1;orthogonalLoop=1;jettySize=auto;html=1;labelBackgroundColor=none;fontColor=#EA6B66;noEdgeStyle=1;orthogonal=1;" edge="1" parent="1" source="5" target="3"><mxGeometry relative="1" as="geometry"><Array as="points"><mxPoint x="62" y="27.5"/><mxPoint x="150"/><mxPoint x="400"/><mxPoint x="488" y="461.6666666666667"/></Array></mxGeometry></mxCell><mxCell id="MyVpcPublicSubnet1RouteTableC46AB2F4|MyVpcPublicSubnet1DefaultRoute95FDF9EB" value="RouteTableId" style="edgeStyle=orthogonalEdgeStyle;rounded=1;orthogonalLoop=1;jettySize=auto;html=1;labelBackgroundColor=none;fontColor=#EA6B66;noEdgeStyle=1;orthogonal=1;" edge="1" parent="1" source="6" target="4"><mxGeometry relative="1" as="geometry"><Array as="points"><mxPoint x="62" y="127.5"/><mxPoint x="238" y="85"/></Array></mxGeometry></mxCell><mxCell id="MyVpcIGW5C4A4F63|MyVpcPublicSubnet1DefaultRoute95FDF9EB" value="GatewayId" style="edgeStyle=orthogonalEdgeStyle;rounded=1;orthogonalLoop=1;jettySize=auto;html=1;labelBackgroundColor=none;fontColor=#EA6B66;noEdgeStyle=1;orthogonal=1;" edge="1" parent="1" source="6" target="23"><mxGeometry relative="1" as="geometry"><Array as="points"><mxPoint x="62" y="147.5"/><mxPoint x="238" y="161.66666666666666"/></Array></mxGeometry></mxCell><mxCell id="MyVpcPublicSubnet1SubnetF6608456|MyVpcPublicSubnet1NATGatewayAD3400C1" value="SubnetId" style="edgeStyle=orthogonalEdgeStyle;rounded=1;orthogonalLoop=1;jettySize=auto;html=1;labelBackgroundColor=none;fontColor=#EA6B66;noEdgeStyle=1;orthogonal=1;" edge="1" parent="1" source="8" target="3"><mxGeometry relative="1" as="geometry"><Array as="points"><mxPoint x="312" y="385"/><mxPoint x="486" y="475"/></Array></mxGeometry></mxCell><mxCell id="MyVpcPublicSubnet1EIP096967CB|MyVpcPublicSubnet1NATGatewayAD3400C1" value="AllocationId" style="edgeStyle=orthogonalEdgeStyle;rounded=1;orthogonalLoop=1;jettySize=auto;html=1;labelBackgroundColor=none;fontColor=#EA6B66;noEdgeStyle=1;orthogonal=1;" edge="1" parent="1" source="8" target="7"><mxGeometry relative="1" as="geometry"><Array as="points"><mxPoint x="312" y="365"/><mxPoint x="488" y="375"/></Array></mxGeometry></mxCell><mxCell id="MyVpcF9F0CA6F|MyVpcPublicSubnet2Subnet492B6BFB" value="VpcId" style="edgeStyle=orthogonalEdgeStyle;rounded=1;orthogonalLoop=1;jettySize=auto;html=1;labelBackgroundColor=none;fontColor=#EA6B66;noEdgeStyle=1;orthogonal=1;" edge="1" parent="1" source="9" target="2"><mxGeometry relative="1" as="geometry"><Array as="points"><mxPoint x="562" y="625"/><mxPoint x="730" y="818.7499999999999"/></Array></mxGeometry></mxCell><mxCell id="MyVpcF9F0CA6F|MyVpcPublicSubnet2RouteTable1DF17386" value="VpcId" style="edgeStyle=orthogonalEdgeStyle;rounded=1;orthogonalLoop=1;jettySize=auto;html=1;labelBackgroundColor=none;fontColor=#EA6B66;noEdgeStyle=1;orthogonal=1;" edge="1" parent="1" source="10" target="2"><mxGeometry relative="1" as="geometry"><Array as="points"><mxPoint x="312" y="275"/><mxPoint x="400" y="300"/><mxPoint x="650" y="300"/><mxPoint x="736" y="806.25"/></Array></mxGeometry></mxCell><mxCell id="MyVpcPublicSubnet2RouteTable1DF17386|MyVpcPublicSubnet2RouteTableAssociation227DE78D" value="RouteTableId" style="edgeStyle=orthogonalEdgeStyle;rounded=1;orthogonalLoop=1;jettySize=auto;html=1;labelBackgroundColor=none;fontColor=#EA6B66;noEdgeStyle=1;orthogonal=1;" edge="1" parent="1" source="11" target="10"><mxGeometry relative="1" as="geometry"><Array as="points"><mxPoint x="62" y="515"/><mxPoint x="238" y="285"/></Array></mxGeometry></mxCell><mxCell id="MyVpcPublicSubnet2Subnet492B6BFB|MyVpcPublicSubnet2RouteTableAssociation227DE78D" value="SubnetId" style="edgeStyle=orthogonalEdgeStyle;rounded=1;orthogonalLoop=1;jettySize=auto;html=1;labelBackgroundColor=none;fontColor=#EA6B66;noEdgeStyle=1;orthogonal=1;" edge="1" parent="1" source="11" target="9"><mxGeometry relative="1" as="geometry"><Array as="points"><mxPoint x="62" y="535"/><mxPoint x="150" y="550"/><mxPoint x="400" y="550"/><mxPoint x="488" y="611.6666666666666"/></Array></mxGeometry></mxCell><mxCell id="MyVpcPublicSubnet2RouteTable1DF17386|MyVpcPublicSubnet2DefaultRoute052936F6" value="RouteTableId" style="edgeStyle=orthogonalEdgeStyle;rounded=1;orthogonalLoop=1;jettySize=auto;html=1;labelBackgroundColor=none;fontColor=#EA6B66;noEdgeStyle=1;orthogonal=1;" edge="1" parent="1" source="12" target="10"><mxGeometry relative="1" as="geometry"><Array as="points"><mxPoint x="62" y="247.5"/><mxPoint x="238" y="265"/></Array></mxGeometry></mxCell><mxCell id="MyVpcIGW5C4A4F63|MyVpcPublicSubnet2DefaultRoute052936F6" value="GatewayId" style="edgeStyle=orthogonalEdgeStyle;rounded=1;orthogonalLoop=1;jettySize=auto;html=1;labelBackgroundColor=none;fontColor=#EA6B66;noEdgeStyle=1;orthogonal=1;" edge="1" parent="1" source="12" target="23"><mxGeometry relative="1" as="geometry"><Array as="points"><mxPoint x="62" y="227.5"/><mxPoint x="236" y="175"/></Array></mxGeometry></mxCell><mxCell id="MyVpcPublicSubnet2Subnet492B6BFB|MyVpcPublicSubnet2NATGateway91BFBEC9" value="SubnetId" style="edgeStyle=orthogonalEdgeStyle;rounded=1;orthogonalLoop=1;jettySize=auto;html=1;labelBackgroundColor=none;fontColor=#EA6B66;noEdgeStyle=1;orthogonal=1;" edge="1" parent="1" source="14" target="9"><mxGeometry relative="1" as="geometry"><Array as="points"><mxPoint x="312" y="615"/><mxPoint x="486" y="625"/></Array></mxGeometry></mxCell><mxCell id="MyVpcPublicSubnet2EIP8CCBA239|MyVpcPublicSubnet2NATGateway91BFBEC9" value="AllocationId" style="edgeStyle=orthogonalEdgeStyle;rounded=1;orthogonalLoop=1;jettySize=auto;html=1;labelBackgroundColor=none;fontColor=#EA6B66;noEdgeStyle=1;orthogonal=1;" edge="1" parent="1" source="14" target="13"><mxGeometry relative="1" as="geometry"><Array as="points"><mxPoint x="312" y="635"/><mxPoint x="488" y="725"/></Array></mxGeometry></mxCell><mxCell id="MyVpcF9F0CA6F|MyVpcPrivateSubnet1Subnet5057CF7E" value="VpcId" style="edgeStyle=orthogonalEdgeStyle;rounded=1;orthogonalLoop=1;jettySize=auto;html=1;labelBackgroundColor=none;fontColor=#EA6B66;noEdgeStyle=1;orthogonal=1;" edge="1" parent="1" source="15" target="2"><mxGeometry relative="1" as="geometry"><Array as="points"><mxPoint x="312" y="975"/><mxPoint x="400" y="900"/><mxPoint x="650" y="900"/><mxPoint x="730" y="831.2499999999998"/></Array></mxGeometry></mxCell><mxCell id="MyVpcF9F0CA6F|MyVpcPrivateSubnet1RouteTable8819E6E2" value="VpcId" style="edgeStyle=orthogonalEdgeStyle;rounded=1;orthogonalLoop=1;jettySize=auto;html=1;labelBackgroundColor=none;fontColor=#EA6B66;noEdgeStyle=1;orthogonal=1;" edge="1" parent="1" source="16" target="2"><mxGeometry relative="1" as="geometry"><Array as="points"><mxPoint x="312" y="475"/><mxPoint x="400" y="550"/><mxPoint x="650" y="550"/><mxPoint x="732" y="814.5833333333333"/></Array></mxGeometry></mxCell><mxCell id="MyVpcPrivateSubnet1RouteTable8819E6E2|MyVpcPrivateSubnet1RouteTableAssociation56D38C7E" value="RouteTableId" style="edgeStyle=orthogonalEdgeStyle;rounded=1;orthogonalLoop=1;jettySize=auto;html=1;labelBackgroundColor=none;fontColor=#EA6B66;noEdgeStyle=1;orthogonal=1;" edge="1" parent="1" source="17" target="16"><mxGeometry relative="1" as="geometry"><Array as="points"><mxPoint x="62" y="815"/><mxPoint x="238" y="485"/></Array></mxGeometry></mxCell><mxCell id="MyVpcPrivateSubnet1Subnet5057CF7E|MyVpcPrivateSubnet1RouteTableAssociation56D38C7E" value="SubnetId" style="edgeStyle=orthogonalEdgeStyle;rounded=1;orthogonalLoop=1;jettySize=auto;html=1;labelBackgroundColor=none;fontColor=#EA6B66;noEdgeStyle=1;orthogonal=1;" edge="1" parent="1" source="17" target="15"><mxGeometry relative="1" as="geometry"><Array as="points"><mxPoint x="62" y="835"/><mxPoint x="238" y="965"/></Array></mxGeometry></mxCell><mxCell id="MyVpcPrivateSubnet1RouteTable8819E6E2|MyVpcPrivateSubnet1DefaultRouteA8CDE2FA" value="RouteTableId" style="edgeStyle=orthogonalEdgeStyle;rounded=1;orthogonalLoop=1;jettySize=auto;html=1;labelBackgroundColor=none;fontColor=#EA6B66;noEdgeStyle=1;orthogonal=1;" edge="1" parent="1" source="18" target="16"><mxGeometry relative="1" as="geometry"><Array as="points"><mxPoint x="62" y="435"/><mxPoint x="238" y="465"/></Array></mxGeometry></mxCell><mxCell id="MyVpcPublicSubnet1NATGatewayAD3400C1|MyVpcPrivateSubnet1DefaultRouteA8CDE2FA" value="NatGatewayId" style="edgeStyle=orthogonalEdgeStyle;rounded=1;orthogonalLoop=1;jettySize=auto;html=1;labelBackgroundColor=none;fontColor=#EA6B66;noEdgeStyle=1;orthogonal=1;" edge="1" parent="1" source="18" target="8"><mxGeometry relative="1" as="geometry"><Array as="points"><mxPoint x="62" y="415"/><mxPoint x="238" y="375"/></Array></mxGeometry></mxCell><mxCell id="MyVpcF9F0CA6F|MyVpcPrivateSubnet2Subnet0040C983" value="VpcId" style="edgeStyle=orthogonalEdgeStyle;rounded=1;orthogonalLoop=1;jettySize=auto;html=1;labelBackgroundColor=none;fontColor=#EA6B66;noEdgeStyle=1;orthogonal=1;" edge="1" parent="1" source="19" target="2"><mxGeometry relative="1" as="geometry"><Array as="points"><mxPoint x="312" y="1075"/><mxPoint x="400" y="950"/><mxPoint x="650" y="950"/><mxPoint x="732" y="835.4166666666664"/></Array></mxGeometry></mxCell><mxCell id="MyVpcF9F0CA6F|MyVpcPrivateSubnet2RouteTableCEDCEECE" value="VpcId" style="edgeStyle=orthogonalEdgeStyle;rounded=1;orthogonalLoop=1;jettySize=auto;html=1;labelBackgroundColor=none;fontColor=#EA6B66;noEdgeStyle=1;orthogonal=1;" edge="1" parent="1" source="20" target="2"><mxGeometry relative="1" as="geometry"><Array as="points"><mxPoint x="312" y="775"/><mxPoint x="400" y="850"/><mxPoint x="650" y="850"/><mxPoint x="728" y="827.0833333333331"/></Array></mxGeometry></mxCell><mxCell id="MyVpcPrivateSubnet2RouteTableCEDCEECE|MyVpcPrivateSubnet2RouteTableAssociation86A610DA" value="RouteTableId" style="edgeStyle=orthogonalEdgeStyle;rounded=1;orthogonalLoop=1;jettySize=auto;html=1;labelBackgroundColor=none;fontColor=#EA6B66;noEdgeStyle=1;orthogonal=1;" edge="1" parent="1" source="21" target="20"><mxGeometry relative="1" as="geometry"><Array as="points"><mxPoint x="62" y="915"/><mxPoint x="238" y="785"/></Array></mxGeometry></mxCell><mxCell id="MyVpcPrivateSubnet2Subnet0040C983|MyVpcPrivateSubnet2RouteTableAssociation86A610DA" value="SubnetId" style="edgeStyle=orthogonalEdgeStyle;rounded=1;orthogonalLoop=1;jettySize=auto;html=1;labelBackgroundColor=none;fontColor=#EA6B66;noEdgeStyle=1;orthogonal=1;" edge="1" parent="1" source="21" target="19"><mxGeometry relative="1" as="geometry"><Array as="points"><mxPoint x="62" y="935"/><mxPoint x="238" y="1065"/></Array></mxGeometry></mxCell><mxCell id="MyVpcPrivateSubnet2RouteTableCEDCEECE|MyVpcPrivateSubnet2DefaultRoute9CE96294" value="RouteTableId" style="edgeStyle=orthogonalEdgeStyle;rounded=1;orthogonalLoop=1;jettySize=auto;html=1;labelBackgroundColor=none;fontColor=#EA6B66;noEdgeStyle=1;orthogonal=1;" edge="1" parent="1" source="22" target="20"><mxGeometry relative="1" as="geometry"><Array as="points"><mxPoint x="62" y="735"/><mxPoint x="238" y="765"/></Array></mxGeometry></mxCell><mxCell id="MyVpcPublicSubnet2NATGateway91BFBEC9|MyVpcPrivateSubnet2DefaultRoute9CE96294" value="NatGatewayId" style="edgeStyle=orthogonalEdgeStyle;rounded=1;orthogonalLoop=1;jettySize=auto;html=1;labelBackgroundColor=none;fontColor=#EA6B66;noEdgeStyle=1;orthogonal=1;" edge="1" parent="1" source="22" target="14"><mxGeometry relative="1" as="geometry"><Array as="points"><mxPoint x="62" y="715"/><mxPoint x="238" y="625"/></Array></mxGeometry></mxCell><mxCell id="MyVpcF9F0CA6F|MyVpcVPCGW488ACE0D" value="VpcId" style="edgeStyle=orthogonalEdgeStyle;rounded=1;orthogonalLoop=1;jettySize=auto;html=1;labelBackgroundColor=none;fontColor=#EA6B66;noEdgeStyle=1;orthogonal=1;" edge="1" parent="1" source="24" target="2"><mxGeometry relative="1" as="geometry"><Array as="points"><mxPoint x="62" y="635"/><mxPoint x="150" y="700"/><mxPoint x="400" y="700"/><mxPoint x="400" y="800"/><mxPoint x="650" y="800"/><mxPoint x="728" y="822.9166666666665"/></Array></mxGeometry></mxCell><mxCell id="MyVpcIGW5C4A4F63|MyVpcVPCGW488ACE0D" value="InternetGatewayId" style="edgeStyle=orthogonalEdgeStyle;rounded=1;orthogonalLoop=1;jettySize=auto;html=1;labelBackgroundColor=none;fontColor=#EA6B66;noEdgeStyle=1;orthogonal=1;" edge="1" parent="1" source="24" target="23"><mxGeometry relative="1" as="geometry"><Array as="points"><mxPoint x="62" y="615"/><mxPoint x="238" y="188.33333333333334"/></Array></mxGeometry></mxCell><mxCell id="MyVpcPublicSubnet1SubnetF6608456|MyFargateServiceLBDE830E97" value="Subnets" style="edgeStyle=orthogonalEdgeStyle;rounded=1;orthogonalLoop=1;jettySize=auto;html=1;labelBackgroundColor=none;fontColor=#EA6B66;noEdgeStyle=1;orthogonal=1;" edge="1" parent="1" source="26" target="3"><mxGeometry relative="1" as="geometry"><Array as="points"><mxPoint x="312" y="861.6666666666666"/><mxPoint x="488" y="488.3333333333333"/></Array></mxGeometry></mxCell><mxCell id="MyVpcPublicSubnet2Subnet492B6BFB|MyFargateServiceLBDE830E97" value="Subnets" style="edgeStyle=orthogonalEdgeStyle;rounded=1;orthogonalLoop=1;jettySize=auto;html=1;labelBackgroundColor=none;fontColor=#EA6B66;noEdgeStyle=1;orthogonal=1;" edge="1" parent="1" source="26" target="9"><mxGeometry relative="1" as="geometry"><Array as="points"><mxPoint x="314" y="875"/><mxPoint x="488" y="638.3333333333334"/></Array></mxGeometry></mxCell><mxCell id="MyFargateServiceLBSecurityGroup6FBF16F1|MyFargateServiceLBDE830E97" value="SecurityGroups" style="edgeStyle=orthogonalEdgeStyle;rounded=1;orthogonalLoop=1;jettySize=auto;html=1;labelBackgroundColor=none;fontColor=#EA6B66;noEdgeStyle=1;orthogonal=1;" edge="1" parent="1" source="26" target="27"><mxGeometry relative="1" as="geometry"><Array as="points"><mxPoint x="312" y="888.3333333333334"/><mxPoint x="488" y="1011.6666666666666"/></Array></mxGeometry></mxCell><mxCell id="MyVpcF9F0CA6F|MyFargateServiceLBSecurityGroup6FBF16F1" value="VpcId" style="edgeStyle=orthogonalEdgeStyle;rounded=1;orthogonalLoop=1;jettySize=auto;html=1;labelBackgroundColor=none;fontColor=#EA6B66;noEdgeStyle=1;orthogonal=1;" edge="1" parent="1" source="27" target="2"><mxGeometry relative="1" as="geometry"><Array as="points"><mxPoint x="562" y="1025"/><mxPoint x="734" y="839.583333333333"/></Array></mxGeometry></mxCell><mxCell id="MyFargateServiceLBSecurityGroup6FBF16F1|MyFargateServiceLBSecurityGrouptoawsfargateserviceMyFargateServiceSecurityGroup91B2EA92802133E82A" value="GroupId" style="edgeStyle=orthogonalEdgeStyle;rounded=1;orthogonalLoop=1;jettySize=auto;html=1;labelBackgroundColor=none;fontColor=#EA6B66;noEdgeStyle=1;orthogonal=1;" edge="1" parent="1" source="28" target="27"><mxGeometry relative="1" as="geometry"><Array as="points"><mxPoint x="62" y="1227.5"/><mxPoint x="150" y="1150"/><mxPoint x="400" y="1150"/><mxPoint x="486" y="1025"/></Array></mxGeometry></mxCell><mxCell id="MyFargateServiceSecurityGroup7016792A|MyFargateServiceLBSecurityGrouptoawsfargateserviceMyFargateServiceSecurityGroup91B2EA92802133E82A" value="DestinationSecurityGroupId" style="edgeStyle=orthogonalEdgeStyle;rounded=1;orthogonalLoop=1;jettySize=auto;html=1;labelBackgroundColor=none;fontColor=#EA6B66;noEdgeStyle=1;orthogonal=1;" edge="1" parent="1" source="28" target="37"><mxGeometry relative="1" as="geometry"><Array as="points"><mxPoint x="62" y="1247.5"/><mxPoint x="238" y="1311.6666666666667"/></Array></mxGeometry></mxCell><mxCell id="MyFargateServiceLBPublicListenerECSGroup4A3EDF05|MyFargateServiceLBPublicListener61A1042F" value="TargetGroupArn" style="edgeStyle=orthogonalEdgeStyle;rounded=1;orthogonalLoop=1;jettySize=auto;html=1;labelBackgroundColor=none;fontColor=#EA6B66;noEdgeStyle=1;orthogonal=1;" edge="1" parent="1" source="29" target="30"><mxGeometry relative="1" as="geometry"><Array as="points"><mxPoint x="62" y="1060"/><mxPoint x="238" y="1215"/></Array></mxGeometry></mxCell><mxCell id="MyFargateServiceLBDE830E97|MyFargateServiceLBPublicListener61A1042F" value="LoadBalancerArn" style="edgeStyle=orthogonalEdgeStyle;rounded=1;orthogonalLoop=1;jettySize=auto;html=1;labelBackgroundColor=none;fontColor=#EA6B66;noEdgeStyle=1;orthogonal=1;" edge="1" parent="1" source="29" target="26"><mxGeometry relative="1" as="geometry"><Array as="points"><mxPoint x="62" y="1040"/><mxPoint x="238" y="875"/></Array></mxGeometry></mxCell><mxCell id="MyVpcF9F0CA6F|MyFargateServiceLBPublicListenerECSGroup4A3EDF05" value="VpcId" style="edgeStyle=orthogonalEdgeStyle;rounded=1;orthogonalLoop=1;jettySize=auto;html=1;labelBackgroundColor=none;fontColor=#EA6B66;noEdgeStyle=1;orthogonal=1;" edge="1" parent="1" source="30" target="2"><mxGeometry relative="1" as="geometry"><Array as="points"><mxPoint x="312" y="1225"/><mxPoint x="400" y="1100"/><mxPoint x="650" y="1100"/><mxPoint x="736" y="843.7499999999997"/></Array></mxGeometry></mxCell><mxCell id="MyFargateServiceTaskDefwebLogGroup4A6C44E8|MyFargateServiceTaskDef5DA17B39" value="awslogs-group" style="edgeStyle=orthogonalEdgeStyle;rounded=1;orthogonalLoop=1;jettySize=auto;html=1;labelBackgroundColor=none;fontColor=#EA6B66;noEdgeStyle=1;orthogonal=1;" edge="1" parent="1" source="32" target="33"><mxGeometry relative="1" as="geometry"><Array as="points"><mxPoint x="314" y="1575"/><mxPoint x="488" y="1315"/></Array></mxGeometry></mxCell><mxCell id="MyFargateServiceTaskDefExecutionRoleD6305504|MyFargateServiceTaskDef5DA17B39" value="ExecutionRoleArn" style="edgeStyle=orthogonalEdgeStyle;rounded=1;orthogonalLoop=1;jettySize=auto;html=1;labelBackgroundColor=none;fontColor=#EA6B66;noEdgeStyle=1;orthogonal=1;" edge="1" parent="1" source="32" target="34"><mxGeometry relative="1" as="geometry"><Array as="points"><mxPoint x="312" y="1588.3333333333333"/><mxPoint x="488" y="1615"/></Array></mxGeometry></mxCell><mxCell id="MyFargateServiceTaskDefTaskRole62C7D397|MyFargateServiceTaskDef5DA17B39" value="TaskRoleArn" style="edgeStyle=orthogonalEdgeStyle;rounded=1;orthogonalLoop=1;jettySize=auto;html=1;labelBackgroundColor=none;fontColor=#EA6B66;noEdgeStyle=1;orthogonal=1;" edge="1" parent="1" source="32" target="31"><mxGeometry relative="1" as="geometry"><Array as="points"><mxPoint x="312" y="1561.6666666666667"/><mxPoint x="488" y="1225"/></Array></mxGeometry></mxCell><mxCell id="MyFargateServiceTaskDefExecutionRoleD6305504|MyFargateServiceTaskDefExecutionRoleDefaultPolicyEC22B20F" value="Roles" style="edgeStyle=orthogonalEdgeStyle;rounded=1;orthogonalLoop=1;jettySize=auto;html=1;labelBackgroundColor=none;fontColor=#EA6B66;noEdgeStyle=1;orthogonal=1;" edge="1" parent="1" source="35" target="34"><mxGeometry relative="1" as="geometry"><Array as="points"><mxPoint x="312" y="1685"/><mxPoint x="488" y="1635"/></Array></mxGeometry></mxCell><mxCell id="MyFargateServiceTaskDefwebLogGroup4A6C44E8|MyFargateServiceTaskDefExecutionRoleDefaultPolicyEC22B20F" value="Resource" style="edgeStyle=orthogonalEdgeStyle;rounded=1;orthogonalLoop=1;jettySize=auto;html=1;labelBackgroundColor=none;fontColor=#EA6B66;noEdgeStyle=1;orthogonal=1;" edge="1" parent="1" source="35" target="33"><mxGeometry relative="1" as="geometry"><Array as="points"><mxPoint x="312" y="1665"/><mxPoint x="488" y="1335"/></Array></mxGeometry></mxCell><mxCell id="MyCluster4C1BA579|MyFargateServiceF490C034" value="Cluster" style="edgeStyle=orthogonalEdgeStyle;rounded=1;orthogonalLoop=1;jettySize=auto;html=1;labelBackgroundColor=none;fontColor=#EA6B66;noEdgeStyle=1;orthogonal=1;" edge="1" parent="1" source="36" target="25"><mxGeometry relative="1" as="geometry"><Array as="points"><mxPoint x="64" y="1347.5000000000002"/><mxPoint x="238" y="1425"/></Array></mxGeometry></mxCell><mxCell id="MyFargateServiceLBPublicListenerECSGroup4A3EDF05|MyFargateServiceF490C034" value="TargetGroupArn" style="edgeStyle=orthogonalEdgeStyle;rounded=1;orthogonalLoop=1;jettySize=auto;html=1;labelBackgroundColor=none;fontColor=#EA6B66;noEdgeStyle=1;orthogonal=1;" edge="1" parent="1" source="36" target="30"><mxGeometry relative="1" as="geometry"><Array as="points"><mxPoint x="66" y="1334.1666666666667"/><mxPoint x="238" y="1235"/></Array></mxGeometry></mxCell><mxCell id="MyVpcPrivateSubnet1Subnet5057CF7E|MyFargateServiceF490C034" value="Subnets" style="edgeStyle=orthogonalEdgeStyle;rounded=1;orthogonalLoop=1;jettySize=auto;html=1;labelBackgroundColor=none;fontColor=#EA6B66;noEdgeStyle=1;orthogonal=1;" edge="1" parent="1" source="36" target="15"><mxGeometry relative="1" as="geometry"><Array as="points"><mxPoint x="62" y="1320.8333333333333"/><mxPoint x="238" y="985"/></Array></mxGeometry></mxCell><mxCell id="MyVpcPrivateSubnet2Subnet0040C983|MyFargateServiceF490C034" value="Subnets" style="edgeStyle=orthogonalEdgeStyle;rounded=1;orthogonalLoop=1;jettySize=auto;html=1;labelBackgroundColor=none;fontColor=#EA6B66;noEdgeStyle=1;orthogonal=1;" edge="1" parent="1" source="36" target="19"><mxGeometry relative="1" as="geometry"><Array as="points"><mxPoint x="64" y="1327.5"/><mxPoint x="238" y="1085"/></Array></mxGeometry></mxCell><mxCell id="MyFargateServiceTaskDef5DA17B39|MyFargateServiceF490C034" value="TaskDefinition" style="edgeStyle=orthogonalEdgeStyle;rounded=1;orthogonalLoop=1;jettySize=auto;html=1;labelBackgroundColor=none;fontColor=#EA6B66;noEdgeStyle=1;orthogonal=1;" edge="1" parent="1" source="36" target="32"><mxGeometry relative="1" as="geometry"><Array as="points"><mxPoint x="62" y="1354.166666666667"/><mxPoint x="238" y="1575"/></Array></mxGeometry></mxCell><mxCell id="MyFargateServiceSecurityGroup7016792A|MyFargateServiceF490C034" value="SecurityGroups" style="edgeStyle=orthogonalEdgeStyle;rounded=1;orthogonalLoop=1;jettySize=auto;html=1;labelBackgroundColor=none;fontColor=#EA6B66;noEdgeStyle=1;orthogonal=1;" edge="1" parent="1" source="36" target="37"><mxGeometry relative="1" as="geometry"><Array as="points"><mxPoint x="66" y="1340.8333333333335"/><mxPoint x="236" y="1325"/></Array></mxGeometry></mxCell><mxCell id="MyVpcF9F0CA6F|MyFargateServiceSecurityGroup7016792A" value="VpcId" style="edgeStyle=orthogonalEdgeStyle;rounded=1;orthogonalLoop=1;jettySize=auto;html=1;labelBackgroundColor=none;fontColor=#EA6B66;noEdgeStyle=1;orthogonal=1;" edge="1" parent="1" source="37" target="2"><mxGeometry relative="1" as="geometry"><Array as="points"><mxPoint x="312" y="1325"/><mxPoint x="400" y="1150"/><mxPoint x="650" y="1150"/><mxPoint x="738" y="847.9166666666663"/></Array></mxGeometry></mxCell><mxCell id="MyFargateServiceSecurityGroup7016792A|MyFargateServiceSecurityGroupfromawsfargateserviceMyFargateServiceLBSecurityGroupE416B85780A581C040" value="GroupId" style="edgeStyle=orthogonalEdgeStyle;rounded=1;orthogonalLoop=1;jettySize=auto;html=1;labelBackgroundColor=none;fontColor=#EA6B66;noEdgeStyle=1;orthogonal=1;" edge="1" parent="1" source="38" target="37"><mxGeometry relative="1" as="geometry"><Array as="points"><mxPoint x="62" y="1427.5"/><mxPoint x="238" y="1338.3333333333333"/></Array></mxGeometry></mxCell><mxCell id="MyFargateServiceLBSecurityGroup6FBF16F1|MyFargateServiceSecurityGroupfromawsfargateserviceMyFargateServiceLBSecurityGroupE416B85780A581C040" value="SourceSecurityGroupId" style="edgeStyle=orthogonalEdgeStyle;rounded=1;orthogonalLoop=1;jettySize=auto;html=1;labelBackgroundColor=none;fontColor=#EA6B66;noEdgeStyle=1;orthogonal=1;" edge="1" parent="1" source="38" target="27"><mxGeometry relative="1" as="geometry"><Array as="points"><mxPoint x="62" y="1447.5"/><mxPoint x="150" y="1500"/><mxPoint x="400" y="1500"/><mxPoint x="488" y="1038.3333333333333"/></Array></mxGeometry></mxCell></root></mxGraphModel>
            </diagram>
          </mxfile>